<svg width="500" height="227" viewBox="0 0 500 227" fill="none" xmlns="http://www.w3.org/2000/svg">
<path d="M65.081 33.3364C62.3116 32.8749 58.8498 32.6441 54.6957 32.6441C48.6954 32.6441 44.0797 34.5673 40.8487 38.4137C37.6177 42.1062 36.0023 47.2604 36.0023 53.8762V59.1842H62.5424C64.8502 59.1842 66.0041 60.3381 66.0041 62.646V79.2624C66.0041 81.5702 64.8502 82.7241 62.5424 82.7241H36.0023V173.653C36.0023 175.961 34.8483 177.115 32.5405 177.115H12.6931C10.3853 177.115 9.23135 175.961 9.23135 173.653V53.8762C9.23135 39.5676 13.0777 28.5669 20.7705 20.8741C28.6172 13.1813 38.5409 9.33493 50.5416 9.33493C56.3881 9.33493 61.0808 9.64264 64.6194 10.2581C66.7734 10.4119 67.8504 11.6428 67.8504 13.9506V29.8747C67.8504 32.1825 66.9273 33.3364 65.081 33.3364Z" fill="url(#paint0_linear_1216_559)"/>
<path d="M179.627 125.419C179.627 127.573 178.473 128.65 176.165 128.65H106.007V135.112C106.007 142.036 108.161 147.344 112.469 151.036C116.931 154.575 122.931 156.344 130.47 156.344C137.086 156.344 142.933 155.421 148.01 153.575C153.087 151.728 158.087 149.113 163.011 145.728C163.78 145.266 164.472 145.036 165.088 145.036C166.165 145.036 167.011 145.497 167.626 146.42L177.089 159.114C177.704 159.729 178.012 160.421 178.012 161.191C178.012 162.421 177.473 163.345 176.396 163.96C163.011 174.576 147.394 179.884 129.547 179.884C120.47 179.884 112.085 178.269 104.392 175.038C96.8528 171.653 90.6986 166.576 85.9291 159.806C81.3134 153.036 79.0055 144.728 79.0055 134.881V102.11C79.0055 91.3401 81.3903 82.4164 86.1598 75.3391C90.9294 68.2617 97.1605 63.1075 104.853 59.8766C112.546 56.4917 120.854 54.7993 129.778 54.7993C138.702 54.7993 146.933 56.4917 154.472 59.8766C162.011 63.1075 168.088 68.2617 172.704 75.3391C177.319 82.4164 179.627 91.3401 179.627 102.11V125.419ZM153.549 101.879C153.549 93.8787 151.318 87.9552 146.856 84.1088C142.394 80.2624 136.701 78.3392 129.778 78.3392C122.547 78.3392 116.777 80.2624 112.469 84.1088C108.161 87.8014 106.007 93.7248 106.007 101.879V107.88H153.549V101.879Z" fill="url(#paint1_linear_1216_559)"/>
<path d="M229.803 135.343C229.803 141.651 231.341 146.574 234.419 150.113C237.649 153.652 242.188 155.421 248.035 155.421L257.497 154.959C259.959 154.959 261.189 156.036 261.189 158.19V175.73C261.189 178.038 260.112 179.269 257.958 179.422C252.727 179.73 248.65 179.884 245.727 179.884C232.957 179.884 222.649 176.422 214.802 169.499C206.955 162.421 203.032 151.652 203.032 137.189V31.7209C203.032 29.567 204.186 28.49 206.494 28.49H224.033C224.956 28.49 225.726 28.7977 226.341 29.4131C226.957 29.8747 227.341 30.567 227.495 31.4902L229.572 59.1842H254.266C256.574 59.1842 257.728 60.2612 257.728 62.4152V79.2624C257.728 81.4164 256.574 82.4933 254.266 82.4933H229.803V135.343Z" fill="url(#paint2_linear_1216_559)"/>
<path d="M368.296 166.96C356.142 175.576 342.526 179.884 327.448 179.884C311.447 179.884 298.831 175.653 289.599 167.191C280.368 158.729 275.752 147.42 275.752 133.266V101.187C275.752 87.0321 280.368 75.8006 289.599 67.4924C298.831 59.0303 311.37 54.7993 327.217 54.7993C340.756 54.7993 353.372 58.4919 365.066 65.8769C366.142 66.4924 366.681 67.4155 366.681 68.6463C366.681 69.2618 366.45 69.9541 365.989 70.7234L356.988 84.5704C356.219 85.6474 355.296 86.1859 354.219 86.1859C353.449 86.1859 352.757 85.9551 352.142 85.4935C344.449 81.0317 336.371 78.8008 327.909 78.8008C319.755 78.8008 313.447 80.724 308.985 84.5704C304.677 88.4168 302.523 93.9556 302.523 101.187V133.497C302.523 140.574 304.677 146.113 308.985 150.113C313.447 153.959 319.678 155.883 327.679 155.883C337.064 155.883 345.987 153.113 354.449 147.574C355.373 147.113 356.142 146.882 356.757 146.882C357.834 146.882 358.68 147.42 359.296 148.497L368.989 162.344C369.45 163.268 369.681 164.037 369.681 164.652C369.681 165.422 369.22 166.191 368.296 166.96Z" fill="url(#paint3_linear_1216_559)"/>
<path d="M415.533 58.7226C423.072 56.1071 431.38 54.7993 440.458 54.7993C455.536 54.7993 467.69 59.1073 476.922 67.7232C486.153 76.1853 490.769 89.263 490.769 106.956V214.81C490.769 217.118 488.919 217.234 486.765 217.234H467.376C465.068 217.234 463.998 217.118 463.998 214.81V107.649C463.998 97.0327 461.844 89.5707 457.536 85.2627C453.228 80.9548 446.612 78.8008 437.688 78.8008C428.457 78.8008 421.072 80.1855 415.533 82.9549V173.653C415.533 175.961 414.379 177.115 412.071 177.115H392.224C389.916 177.115 388.762 175.961 388.762 173.653V15.5661C388.762 13.2583 389.916 12.1043 392.224 12.1043H412.071C414.379 12.1043 415.533 13.2583 415.533 15.5661V58.7226Z" fill="url(#paint4_linear_1216_559)"/>
<path d="M366.631 195.715C368.873 194.172 371.726 193.401 375.191 193.401C378.015 193.401 380.228 194.143 381.829 195.628C383.46 197.084 384.275 199.297 384.275 202.266V215.019C384.275 215.368 384.115 215.616 383.795 215.762C382.572 216.14 381.174 216.446 379.602 216.679C378.059 216.941 376.53 217.072 375.016 217.072C372.192 217.072 369.863 216.489 368.029 215.325C366.194 214.16 365.277 212.311 365.277 209.778C365.277 207.478 366.136 205.746 367.854 204.581C369.601 203.387 371.93 202.79 374.842 202.79C376.006 202.79 377.462 202.907 379.209 203.14V202.31C379.209 200.738 378.874 199.617 378.205 198.947C377.564 198.248 376.443 197.899 374.842 197.899C373.793 197.899 372.774 198.03 371.784 198.292C370.824 198.525 369.979 198.86 369.251 199.297C369.106 199.384 368.975 199.428 368.858 199.428C368.655 199.428 368.494 199.326 368.378 199.122L366.631 196.458C366.427 196.138 366.427 195.89 366.631 195.715ZM370.387 209.735C370.387 210.725 370.809 211.467 371.653 211.962C372.498 212.428 373.619 212.661 375.016 212.661C376.356 212.661 377.753 212.486 379.209 212.137V207.202C377.637 206.969 376.225 206.852 374.973 206.852C371.915 206.852 370.387 207.813 370.387 209.735Z" fill="url(#paint5_linear_1216_559)"/>
<path d="M399.147 216.941C398.39 217.028 397.561 217.072 396.658 217.072C394.329 217.072 392.524 216.329 391.242 214.844C389.99 213.36 389.364 211.278 389.364 208.599V185.976C389.364 185.539 389.583 185.321 390.02 185.321H393.776C394.212 185.321 394.431 185.539 394.431 185.976V208.424C394.431 209.851 394.664 210.885 395.129 211.525C395.595 212.137 396.323 212.442 397.313 212.442C397.662 212.442 398.216 212.413 398.973 212.355C399.409 212.355 399.628 212.573 399.628 213.01V216.242C399.628 216.679 399.468 216.912 399.147 216.941Z" fill="url(#paint6_linear_1216_559)"/>
<path d="M407.739 194.361C409.254 193.721 410.826 193.401 412.456 193.401C414.291 193.401 415.936 193.779 417.391 194.536C418.847 195.293 419.983 196.37 420.798 197.768C421.613 199.166 422.021 200.796 422.021 202.659V207.464C422.021 210.637 421.104 213.039 419.269 214.67C417.435 216.271 415.004 217.072 411.976 217.072C410.549 217.072 409.05 216.926 407.477 216.635C405.905 216.373 404.479 215.994 403.197 215.5C402.848 215.383 402.673 215.136 402.673 214.757V185.976C402.673 185.539 402.892 185.321 403.328 185.321H407.084C407.521 185.321 407.739 185.539 407.739 185.976V194.361ZM411.845 212.53C413.504 212.53 414.756 212.137 415.601 211.351C416.445 210.564 416.867 209.283 416.867 207.507V202.659C416.867 199.486 415.222 197.899 411.932 197.899C410.331 197.899 408.933 198.278 407.739 199.035V211.918C408.729 212.326 410.098 212.53 411.845 212.53Z" fill="url(#paint7_linear_1216_559)"/>
<path d="M426.554 195.715C428.796 194.172 431.65 193.401 435.114 193.401C437.939 193.401 440.151 194.143 441.753 195.628C443.383 197.084 444.198 199.297 444.198 202.266V215.019C444.198 215.368 444.038 215.616 443.718 215.762C442.495 216.14 441.098 216.446 439.525 216.679C437.982 216.941 436.454 217.072 434.94 217.072C432.115 217.072 429.786 216.489 427.952 215.325C426.118 214.16 425.2 212.311 425.2 209.778C425.2 207.478 426.059 205.746 427.777 204.581C429.524 203.387 431.853 202.79 434.765 202.79C435.93 202.79 437.385 202.907 439.132 203.14V202.31C439.132 200.738 438.798 199.617 438.128 198.947C437.487 198.248 436.366 197.899 434.765 197.899C433.717 197.899 432.698 198.03 431.708 198.292C430.747 198.525 429.903 198.86 429.175 199.297C429.029 199.384 428.898 199.428 428.782 199.428C428.578 199.428 428.418 199.326 428.301 199.122L426.554 196.458C426.351 196.138 426.351 195.89 426.554 195.715ZM430.31 209.735C430.31 210.725 430.732 211.467 431.577 211.962C432.421 212.428 433.542 212.661 434.94 212.661C436.279 212.661 437.677 212.486 439.132 212.137V207.202C437.56 206.969 436.148 206.852 434.896 206.852C431.839 206.852 430.31 207.813 430.31 209.735Z" fill="url(#paint8_linear_1216_559)"/>
<path d="M454.834 187.985C454.834 188.8 454.558 189.485 454.005 190.038C453.48 190.591 452.811 190.868 451.996 190.868C451.18 190.868 450.496 190.591 449.943 190.038C449.39 189.485 449.113 188.8 449.113 187.985C449.113 187.17 449.39 186.5 449.943 185.976C450.496 185.423 451.18 185.146 451.996 185.146C452.84 185.146 453.524 185.408 454.048 185.932C454.572 186.457 454.834 187.141 454.834 187.985ZM450.074 216.548C449.637 216.548 449.419 216.329 449.419 215.893V194.536C449.419 194.129 449.637 193.925 450.074 193.925H453.874C454.281 193.925 454.485 194.129 454.485 194.536V215.893C454.485 216.329 454.281 216.548 453.874 216.548H450.074Z" fill="url(#paint9_linear_1216_559)"/>
<defs>
<linearGradient id="paint0_linear_1216_559" x1="-6.79391" y1="90.5537" x2="505.513" y2="90.5537" gradientUnits="userSpaceOnUse">
<stop stop-color="#1D85C7"/>
<stop offset="1" stop-color="#02A9E4"/>
</linearGradient>
<linearGradient id="paint1_linear_1216_559" x1="-6.79391" y1="90.5537" x2="505.513" y2="90.5537" gradientUnits="userSpaceOnUse">
<stop stop-color="#1D85C7"/>
<stop offset="1" stop-color="#02A9E4"/>
</linearGradient>
<linearGradient id="paint2_linear_1216_559" x1="-6.79391" y1="90.5537" x2="505.513" y2="90.5537" gradientUnits="userSpaceOnUse">
<stop stop-color="#1D85C7"/>
<stop offset="1" stop-color="#02A9E4"/>
</linearGradient>
<linearGradient id="paint3_linear_1216_559" x1="-6.79391" y1="90.5537" x2="505.513" y2="90.5537" gradientUnits="userSpaceOnUse">
<stop stop-color="#1D85C7"/>
<stop offset="1" stop-color="#02A9E4"/>
</linearGradient>
<linearGradient id="paint4_linear_1216_559" x1="-6.79391" y1="90.5537" x2="505.513" y2="90.5537" gradientUnits="userSpaceOnUse">
<stop stop-color="#1D85C7"/>
<stop offset="1" stop-color="#02A9E4"/>
</linearGradient>
<linearGradient id="paint5_linear_1216_559" x1="362.175" y1="200.167" x2="459.124" y2="200.167" gradientUnits="userSpaceOnUse">
<stop stop-color="#1D85C7"/>
<stop offset="1" stop-color="#02A9E4"/>
</linearGradient>
<linearGradient id="paint6_linear_1216_559" x1="362.175" y1="200.167" x2="459.124" y2="200.167" gradientUnits="userSpaceOnUse">
<stop stop-color="#1D85C7"/>
<stop offset="1" stop-color="#02A9E4"/>
</linearGradient>
<linearGradient id="paint7_linear_1216_559" x1="362.175" y1="200.167" x2="459.124" y2="200.167" gradientUnits="userSpaceOnUse">
<stop stop-color="#1D85C7"/>
<stop offset="1" stop-color="#02A9E4"/>
</linearGradient>
<linearGradient id="paint8_linear_1216_559" x1="362.175" y1="200.167" x2="459.124" y2="200.167" gradientUnits="userSpaceOnUse">
<stop stop-color="#1D85C7"/>
<stop offset="1" stop-color="#02A9E4"/>
</linearGradient>
<linearGradient id="paint9_linear_1216_559" x1="362.175" y1="200.167" x2="459.124" y2="200.167" gradientUnits="userSpaceOnUse">
<stop stop-color="#1D85C7"/>
<stop offset="1" stop-color="#02A9E4"/>
</linearGradient>
</defs>
</svg>
